<svg width="300" height="300" viewBox="0 0 300 300" fill="none" xmlns="http://www.w3.org/2000/svg">
<rect width="300" height="300" fill="white"/>
<g filter="url(#filter0_d_10_2)">
<path d="M49.8989 184.504V166.864H125.751V184.504H49.8989ZM71.8509 82.192H101.643L143.979 219H122.615L94.9789 128.448L86.7469 98.46L78.5149 128.644L50.4869 219H29.5149L71.8509 82.192ZM165.615 219V204.104C183.647 190.645 198.151 178.951 209.127 169.02C220.103 158.959 228.074 150.073 233.039 142.364C238.005 134.524 240.487 127.403 240.487 121C240.487 113.944 238.266 108.26 233.823 103.948C229.511 99.636 223.435 97.48 215.595 97.48C207.363 97.48 200.569 100.028 195.211 105.124C189.854 110.089 186.979 117.145 186.587 126.292H165.615C166.269 116.492 168.751 108.129 173.063 101.204C177.506 94.148 183.386 88.856 190.703 85.328C198.151 81.6693 206.579 79.84 215.987 79.84C225.395 79.84 233.562 81.5387 240.487 84.936C247.413 88.2027 252.705 92.9067 256.363 99.048C260.153 105.059 262.047 112.049 262.047 120.02C262.047 128.644 259.826 137.137 255.383 145.5C251.071 153.732 244.081 162.421 234.411 171.568C224.873 180.584 212.198 190.515 196.387 201.36H262.439V219H165.615Z" fill="black"/>
</g>
<defs>
<filter id="filter0_d_10_2" x="29.5149" y="79.84" width="240.925" height="147.16" filterUnits="userSpaceOnUse" color-interpolation-filters="sRGB">
<feFlood flood-opacity="0" result="BackgroundImageFix"/>
<feColorMatrix in="SourceAlpha" type="matrix" values="0 0 0 0 0 0 0 0 0 0 0 0 0 0 0 0 0 0 127 0" result="hardAlpha"/>
<feOffset dx="8" dy="8"/>
<feComposite in2="hardAlpha" operator="out"/>
<feColorMatrix type="matrix" values="0 0 0 0 1 0 0 0 0 0.00569661 0 0 0 0 0.00569661 0 0 0 0.25 0"/>
<feBlend mode="normal" in2="BackgroundImageFix" result="effect1_dropShadow_10_2"/>
<feBlend mode="normal" in="SourceGraphic" in2="effect1_dropShadow_10_2" result="shape"/>
</filter>
</defs>
</svg>
