<svg width="128" height="128" viewBox="0 0 128 128" fill="none" xmlns="http://www.w3.org/2000/svg">
<g clip-path="url(#clip0_51_3)">
<rect width="128" height="128" rx="30" fill="white"/>
<path d="M115 173L115 4.57895" stroke="#AAAAAA" stroke-linecap="round"/>
<path d="M95 173L95 4.57895" stroke="#AAAAAA" stroke-linecap="round"/>
<path d="M75 144.053L75 -24.3684" stroke="#AAAAAA" stroke-linecap="round"/>
<path d="M35 141.421V-27" stroke="#AAAAAA" stroke-linecap="round"/>
<path d="M15 141.421V-27" stroke="#AAAAAA" stroke-linecap="round"/>
<path d="M55 173L55 4.57895" stroke="#AAAAAA" stroke-linecap="round"/>
<path d="M134.421 11H-34" stroke="#AAAAAA" stroke-linecap="round"/>
<path d="M166 31L-2.42105 31" stroke="#AAAAAA" stroke-linecap="round"/>
<path d="M166 51L-2.42105 51" stroke="#AAAAAA" stroke-linecap="round"/>
<path d="M137.053 71L-31.3684 71" stroke="#AAAAAA" stroke-linecap="round"/>
<path d="M134.421 111H-34" stroke="#AAAAAA" stroke-linecap="round"/>
<path d="M166 91L-2.42105 91" stroke="#AAAAAA" stroke-linecap="round"/>
<rect width="128" height="37" fill="#DE5246"/>
<path d="M1.56323 36.8519H126.064" stroke="black" stroke-width="4" stroke-linecap="round"/>
<g filter="url(#filter0_di_51_3)">
<rect x="10" y="60" width="107" height="31" rx="15.5" fill="white"/>
<rect x="8.5" y="58.5" width="110" height="34" rx="17" stroke="#42A5F5" stroke-width="3"/>
</g>
<path d="M28.424 73.648C28.424 74.4693 28.004 74.88 27.164 74.88C26.884 74.88 26.6507 74.8147 26.464 74.684C26.2773 74.5533 26.072 74.3573 25.848 74.096C25.288 73.48 24.8027 73.172 24.392 73.172C23.8507 73.172 23.3187 73.3307 22.796 73.648C22.292 73.9653 21.8813 74.4133 21.564 74.992C21.2467 75.5707 21.088 76.2147 21.088 76.924C21.088 77.708 21.2373 78.3613 21.536 78.884C21.8533 79.4067 22.3387 79.8547 22.992 80.228C23.2347 80.3587 23.5147 80.4613 23.832 80.536C24.168 80.6107 24.4573 80.648 24.7 80.648C25.2413 80.648 25.9227 80.4333 26.744 80.004C27.0427 79.8547 27.2947 79.7427 27.5 79.668C27.7053 79.5933 27.92 79.556 28.144 79.556C28.3493 79.556 28.5827 79.6493 28.844 79.836C29.1053 80.0227 29.236 80.256 29.236 80.536C29.236 81.096 28.9747 81.572 28.452 81.964C27.9293 82.3373 27.2853 82.6267 26.52 82.832C25.7733 83.0187 25.0547 83.112 24.364 83.112C23.2627 83.112 22.236 82.86 21.284 82.356C20.3507 81.852 19.604 81.1613 19.044 80.284C18.484 79.388 18.204 78.38 18.204 77.26C18.204 76.0653 18.4747 74.9733 19.016 73.984C19.5573 72.9947 20.2853 72.22 21.2 71.66C22.1147 71.1 23.1133 70.82 24.196 70.82C24.812 70.82 25.4467 70.932 26.1 71.156C26.7533 71.38 27.304 71.7067 27.752 72.136C28.2 72.5653 28.424 73.0693 28.424 73.648ZM31.581 73.368C31.1143 72.976 30.881 72.5187 30.881 71.996C30.881 71.7347 31.0117 71.5013 31.273 71.296C31.5343 71.072 31.8517 70.96 32.225 70.96C32.897 70.96 33.4477 71.1373 33.877 71.492C34.3063 71.8467 34.6797 72.36 34.997 73.032C35.389 72.304 35.8837 71.772 36.481 71.436C37.097 71.0813 37.8717 70.904 38.805 70.904C39.365 70.904 39.813 70.9787 40.149 71.128C40.5037 71.2587 40.793 71.4547 41.017 71.716C41.241 71.9587 41.521 72.332 41.857 72.836C42.3423 72.2387 42.949 71.772 43.677 71.436C44.4237 71.1 45.189 70.932 45.973 70.932C46.8877 70.932 47.7183 71.3147 48.465 72.08C49.2303 72.8453 49.7437 73.7133 50.005 74.684C50.0983 75.0947 50.1637 76.0653 50.201 77.596L50.313 79.22C50.4063 80.2093 50.7237 80.7973 51.265 80.984C51.5263 81.0587 51.741 81.152 51.909 81.264C52.0957 81.3573 52.189 81.46 52.189 81.572C52.2263 82.02 52.1237 82.3467 51.881 82.552C51.713 82.664 51.4797 82.7853 51.181 82.916C50.8823 83.0467 50.649 83.112 50.481 83.112C49.473 83.112 48.7543 82.748 48.325 82.02C48.045 81.5347 47.8677 80.984 47.793 80.368C47.7183 79.7333 47.681 78.8747 47.681 77.792C47.681 76.6347 47.541 75.6453 47.261 74.824C46.981 73.984 46.3463 73.564 45.357 73.564C45.0023 73.564 44.6477 73.676 44.293 73.9C43.957 74.1053 43.7143 74.3667 43.565 74.684C43.3037 75.188 43.1263 75.7387 43.033 76.336C42.9397 76.9147 42.893 77.5867 42.893 78.352C42.893 78.8373 42.921 79.332 42.977 79.836C42.977 79.9853 42.9863 80.228 43.005 80.564C43.0423 80.8813 43.061 81.1707 43.061 81.432C43.061 81.8987 42.9677 82.3 42.781 82.636C42.613 82.9533 42.3143 83.112 41.885 83.112C40.8583 83.112 40.317 82.5707 40.261 81.488C40.261 80.7227 40.2703 80.312 40.289 80.256V79.052C40.289 78.38 40.261 77.7267 40.205 77.092C40.149 76.4573 40.0837 75.9813 40.009 75.664C39.841 75.048 39.617 74.572 39.337 74.236C39.057 73.9 38.6277 73.732 38.049 73.732C37.657 73.732 37.293 73.8253 36.957 74.012C36.621 74.1987 36.3317 74.46 36.089 74.796C35.7343 75.356 35.501 76.0373 35.389 76.84C35.277 77.8667 35.193 78.6787 35.137 79.276C35.0997 79.8547 35.081 80.5267 35.081 81.292C35.081 81.8333 34.9877 82.272 34.801 82.608C34.633 82.944 34.3063 83.112 33.821 83.112C33.4663 83.112 33.093 83.0187 32.701 82.832C32.3277 82.6267 32.141 82.356 32.141 82.02C32.141 81.6653 32.1783 81.3107 32.253 80.956C32.421 79.892 32.505 78.0813 32.505 75.524C32.505 75.1133 32.4117 74.712 32.225 74.32C32.057 73.9093 31.8423 73.592 31.581 73.368ZM65.3123 65.472C65.3123 65.6587 65.2843 65.892 65.2283 66.172C65.2096 66.284 65.1909 66.4053 65.1723 66.536C65.1536 66.6667 65.1349 66.8253 65.1163 67.012C64.9483 68.692 64.8643 70.7733 64.8643 73.256C64.8643 75.608 64.9669 77.3533 65.1723 78.492C65.3776 79.6307 65.6949 80.312 66.1243 80.536L66.6562 80.76C66.9363 80.8533 67.1416 80.956 67.2723 81.068C67.4216 81.18 67.4963 81.3667 67.4963 81.628C67.4963 82.0013 67.3003 82.328 66.9083 82.608C66.5163 82.8693 66.0869 83 65.6203 83C65.1349 83 64.6589 82.804 64.1923 82.412C63.7256 82.0013 63.3429 81.488 63.0443 80.872C62.7269 81.544 62.1669 82.0853 61.3643 82.496C60.5616 82.888 59.7963 83.084 59.0683 83.084C58.4149 83.084 57.8456 83 57.3603 82.832C56.8749 82.6453 56.3709 82.3653 55.8483 81.992C55.2136 81.544 54.7283 80.9747 54.3923 80.284C54.0749 79.5933 53.9163 78.8373 53.9163 78.016C53.9163 77.1947 54.0749 76.3267 54.3923 75.412C54.7096 74.4787 55.0736 73.7133 55.4843 73.116C55.9696 72.4253 56.6136 71.912 57.4163 71.576C58.2189 71.2213 59.0496 71.044 59.9083 71.044C60.3936 71.044 60.8136 71.1373 61.1683 71.324C61.5229 71.492 61.8869 71.7347 62.2603 72.052C62.2603 71.1187 62.2416 70.3347 62.2043 69.7C62.1856 69.532 62.1763 69.336 62.1763 69.112C62.1763 67.5067 62.3069 66.2373 62.5683 65.304C62.7736 64.52 63.2683 64.128 64.0523 64.128C64.4816 64.128 64.7989 64.2213 65.0043 64.408C65.2096 64.5947 65.3123 64.9493 65.3123 65.472ZM56.6323 77.96C56.6323 78.912 56.9403 79.64 57.5563 80.144C57.8363 80.4053 58.0696 80.5827 58.2563 80.676C58.4429 80.7693 58.6763 80.816 58.9563 80.816C59.4976 80.816 60.0109 80.6667 60.4963 80.368C61.0003 80.0507 61.3923 79.64 61.6723 79.136C61.9709 78.632 62.1203 78.0907 62.1203 77.512L62.0923 74.74C61.7003 74.292 61.3363 73.984 61.0003 73.816C60.6829 73.6293 60.3469 73.536 59.9923 73.536C58.7976 73.536 57.9763 73.9933 57.5283 74.908C57.2856 75.3373 57.0709 75.8227 56.8843 76.364C56.7163 76.9053 56.6323 77.4373 56.6323 77.96ZM85.9638 75.916C86.7664 75.916 87.2984 76 87.5598 76.168C87.8211 76.3173 87.9518 76.6533 87.9518 77.176C87.9518 77.5867 87.7558 77.8853 87.3638 78.072C86.9718 78.2587 86.5144 78.352 85.9918 78.352L85.0678 78.38C84.4331 78.4173 83.9664 78.436 83.6678 78.436C83.4064 78.436 83.2384 78.4267 83.1638 78.408C83.1264 78.5387 83.1078 78.7533 83.1078 79.052C83.0891 79.3133 83.1171 79.724 83.1918 80.284C83.2104 80.396 83.2291 80.5547 83.2478 80.76C83.2664 80.9653 83.2758 81.152 83.2758 81.32C83.2758 81.8613 83.1731 82.272 82.9678 82.552C82.7624 82.8133 82.4264 82.944 81.9598 82.944C81.6798 82.944 81.3998 82.8413 81.1198 82.636C80.8584 82.412 80.7278 82.1693 80.7278 81.908C80.7278 80.4333 80.6904 79.2573 80.6158 78.38C80.1118 78.324 79.7944 78.296 79.6638 78.296C79.2158 78.296 78.7771 78.324 78.3478 78.38C77.7878 78.4173 77.3864 78.436 77.1438 78.436C76.6584 78.4173 76.2478 78.324 75.9118 78.156C75.5944 77.9693 75.4358 77.6893 75.4358 77.316C75.4358 76.9053 75.5198 76.616 75.6878 76.448C75.9678 76.1493 76.5184 76 77.3398 76C77.7691 76 78.2451 75.9813 78.7678 75.944C79.2158 75.9067 79.5238 75.888 79.6918 75.888C79.8598 75.888 80.0184 75.9067 80.1678 75.944C80.3171 75.9627 80.4571 75.972 80.5878 75.972C80.6251 75.804 80.6438 75.5333 80.6438 75.16C80.6438 74.8427 80.6251 74.3853 80.5878 73.788C80.5504 73.228 80.5318 72.8173 80.5318 72.556C80.5318 71.996 80.6064 71.5853 80.7558 71.324C80.9238 71.0627 81.2504 70.932 81.7358 70.932C82.1651 70.932 82.4918 71.0253 82.7158 71.212C82.9398 71.38 83.0518 71.6227 83.0518 71.94C83.0704 72.332 83.0611 72.9013 83.0238 73.648L82.9958 74.908C82.9958 75.356 83.0051 75.692 83.0238 75.916C83.4718 75.9533 83.7984 75.972 84.0038 75.972C84.4331 75.972 84.7504 75.9627 84.9558 75.944L85.9638 75.916ZM96.7639 77.064C96.7639 76.3547 96.8946 75.6453 97.1559 74.936C97.4172 74.208 97.7626 73.5453 98.1919 72.948C98.6212 72.3507 99.3026 71.8653 100.236 71.492C101.169 71.1 102 70.904 102.728 70.904C103.475 70.904 104.231 71.0067 104.996 71.212C105.78 71.4173 106.321 71.7347 106.62 72.164C107.311 73.1347 107.656 74.0867 107.656 75.02C107.656 75.524 107.544 75.9533 107.32 76.308C107.115 76.6627 106.816 77.0453 106.424 77.456C106.107 77.792 105.603 78.016 104.912 78.128C104.24 78.24 103.568 78.296 102.896 78.296C102.467 78.296 101.944 78.2587 101.328 78.184C100.712 78.0907 100.115 77.9787 99.5359 77.848C99.5732 78.2213 99.6666 78.5853 99.8159 78.94C99.9652 79.2947 100.143 79.5653 100.348 79.752C100.721 80.1067 101.104 80.3307 101.496 80.424C101.907 80.5173 102.429 80.564 103.064 80.564C103.736 80.564 104.361 80.452 104.94 80.228C105.407 80.06 105.789 79.976 106.088 79.976C106.443 79.976 106.713 80.088 106.9 80.312C107.087 80.5173 107.18 80.788 107.18 81.124C107.18 81.5907 106.909 81.9733 106.368 82.272C105.827 82.5707 105.201 82.7947 104.492 82.944C103.801 83.0747 103.241 83.14 102.812 83.14C101.935 83.14 101.085 82.9813 100.264 82.664C99.4426 82.3467 98.7612 81.8987 98.2199 81.32C97.7719 80.7973 97.4172 80.172 97.1559 79.444C96.8946 78.6973 96.7639 77.904 96.7639 77.064ZM102.868 73.284C102.457 73.284 102.047 73.368 101.636 73.536C101.225 73.6853 100.889 73.9 100.628 74.18C100.292 74.5347 100.059 74.824 99.9279 75.048C99.8159 75.2533 99.7412 75.5427 99.7039 75.916C100.171 76.0653 101.141 76.14 102.616 76.14C103.419 76.14 104.035 76.0187 104.464 75.776C104.912 75.5333 105.136 75.216 105.136 74.824C105.136 74.432 104.893 74.0773 104.408 73.76C103.923 73.4427 103.409 73.284 102.868 73.284Z" fill="black"/>
</g>
<rect x="2" y="2" width="124" height="124" rx="28" stroke="black" stroke-width="4"/>
<defs>
<filter id="filter0_di_51_3" x="0" y="53" width="127" height="52" filterUnits="userSpaceOnUse" color-interpolation-filters="sRGB">
<feFlood flood-opacity="0" result="BackgroundImageFix"/>
<feColorMatrix in="SourceAlpha" type="matrix" values="0 0 0 0 0 0 0 0 0 0 0 0 0 0 0 0 0 0 127 0" result="hardAlpha"/>
<feMorphology radius="1" operator="dilate" in="SourceAlpha" result="effect1_dropShadow_51_3"/>
<feOffset dy="4"/>
<feGaussianBlur stdDeviation="3"/>
<feComposite in2="hardAlpha" operator="out"/>
<feColorMatrix type="matrix" values="0 0 0 0 0 0 0 0 0 0 0 0 0 0 0 0 0 0 0.4 0"/>
<feBlend mode="normal" in2="BackgroundImageFix" result="effect1_dropShadow_51_3"/>
<feBlend mode="normal" in="SourceGraphic" in2="effect1_dropShadow_51_3" result="shape"/>
<feColorMatrix in="SourceAlpha" type="matrix" values="0 0 0 0 0 0 0 0 0 0 0 0 0 0 0 0 0 0 127 0" result="hardAlpha"/>
<feOffset dx="-4" dy="-4"/>
<feGaussianBlur stdDeviation="6"/>
<feComposite in2="hardAlpha" operator="arithmetic" k2="-1" k3="1"/>
<feColorMatrix type="matrix" values="0 0 0 0 0 0 0 0 0 0 0 0 0 0 0 0 0 0 0.25 0"/>
<feBlend mode="normal" in2="shape" result="effect2_innerShadow_51_3"/>
</filter>
<clipPath id="clip0_51_3">
<rect width="128" height="128" rx="30" fill="white"/>
</clipPath>
</defs>
</svg>
