<svg width="70" height="70" viewBox="0 0 70 70" fill="none" xmlns="http://www.w3.org/2000/svg">
  <style>
    :root {
      --bg-color: white;
      --text-color: black;
    }
    }
  </style>
  <rect x="2" y="2" width="66" height="66" rx="10" fill="var(--bg-color)" stroke="black" stroke-width="4"/>
  <line x1="1" y1="20" x2="70" y2="20" stroke="black" stroke-width="4"/>
  <circle cx="10" cy="11" r="4" fill="#EC6A5E"/>
  <circle cx="20" cy="11" r="4" fill="#F4BF50"/>
  <path d="M35 11C35 13.2091 33.2091 15 31 15C28.7909 15 27 13.2091 27 11C27 8.79086 28.7909 7 31 7C33.2091 7 35 8.79086 35 11Z" fill="#61C553"/>
  <path d="M8.432 52.208V48.528L17.712 44.24C18.1387 44.048 18.5547 43.888 18.96 43.76C19.3867 43.6107 19.7173 43.5147 19.952 43.472C19.7173 43.4293 19.3867 43.3547 18.96 43.248C18.5333 43.12 18.1173 42.96 17.712 42.768L8.432 38.448V34.704L22.768 41.456V45.456L8.432 52.208ZM37.4755 54C36.3235 54 35.3102 53.7653 34.4355 53.296C33.5822 52.8267 32.9102 52.1653 32.4195 51.312C31.9288 50.4373 31.6835 49.4347 31.6835 48.304V34.256H26.0515V30.64H35.6835V48.304C35.6835 48.944 35.8648 49.456 36.2275 49.84C36.6115 50.2027 37.1235 50.384 37.7635 50.384H43.0755V54H37.4755Z" fill="var(--text-color)"/>
</svg>
