<svg width="200" height="200" viewBox="0 0 200 200" fill="none" xmlns="http://www.w3.org/2000/svg">
<g clip-path="url(#clip0_1_9)">
<path d="M26 175.972L120 81.9717" stroke="#C7AE90" stroke-width="15" stroke-linecap="round"/>
<path d="M162.471 31.1319C166.325 29.8143 170.053 33.411 168.875 37.3099L162.686 57.7812C162.22 59.3244 162.526 60.9979 163.509 62.2759L176.655 79.3718C179.182 82.6582 176.842 87.4157 172.696 87.4197L151.539 87.4401C149.892 87.4417 148.351 88.2547 147.42 89.6137L135.523 106.973C133.205 110.356 128.024 109.663 126.677 105.789L119.544 85.2859C119.021 83.7833 117.814 82.6192 116.294 82.1506L95.5479 75.7569C91.6286 74.549 90.7503 69.3962 94.0481 66.9581L110.97 54.4476C112.295 53.4682 113.052 51.8992 112.994 50.2527L112.257 29.1086C112.112 24.9654 116.783 22.4562 120.158 24.8639L137.713 37.389C139.026 38.3254 140.709 38.5714 142.235 38.0499L162.471 31.1319Z" fill="#E3E0A1"/>
</g>
<defs>
<clipPath id="clip0_1_9">
<rect width="200" height="200" fill="white"/>
</clipPath>
</defs>
</svg>
